HIERARCHY
ROOT root
{
	OFFSET	0	13.1	24.9
	CHANNELS 6  Xposition Yposition Zposition Xrotation Yrotation Zrotation
	JOINT spine_1
	{
		OFFSET	0	9.99999	0
		CHANNELS 3  Xrotation Yrotation Zrotation
		JOINT spine_2
		{
			OFFSET	0	112	-10
			CHANNELS 3  Xrotation Yrotation Zrotation
			JOINT spine_3
			{
				OFFSET	0	206.5	19.3
				CHANNELS 3  Xrotation Yrotation Zrotation
				JOINT spine_4
				{
					OFFSET	0	110.4	14.6
					CHANNELS 3  Xrotation Yrotation Zrotation
					JOINT neck_1
					{
						OFFSET	0	71.8	-50.3
						CHANNELS 3  Xrotation Yrotation Zrotation
						JOINT neck_2
						{
							OFFSET	0	86.2	-25.8
							CHANNELS 3  Xrotation Yrotation Zrotation
							JOINT head_ee
							{
								OFFSET	0	179.8	-8.7
								CHANNELS 3  Xrotation Yrotation Zrotation
								End Site
								{
									OFFSET	1	0	0
								}
							}
						}
					}
					JOINT left_clavicle
					{
						OFFSET	-43.2	22.4	-70.8
						CHANNELS 3  Xrotation Yrotation Zrotation
						JOINT left_shoulder
						{
							OFFSET	-93.9	-5.79999	48.7
							CHANNELS 3  Xrotation Yrotation Zrotation
							JOINT left_elbow
							{
								OFFSET	-291.4	-30.8	15.2
								CHANNELS 3  Xrotation Yrotation Zrotation
								JOINT left_lowarm_twist
								{
									OFFSET	-110.7	-3.89999	13.6
									CHANNELS 3  Xrotation Yrotation Zrotation
									JOINT left_hand
									{
										OFFSET	-110.7	-3.89999	13.6
										CHANNELS 3  Xrotation Yrotation Zrotation
										JOINT left_ee
										{
											OFFSET	-80.8	-5.10001	12.1
											CHANNELS 3  Xrotation Yrotation Zrotation
											End Site
											{
												OFFSET	1	0	0
											}
										}
									}
								}
							}
						}
					}
					JOINT right_clavicle
					{
						OFFSET	43.2	22.4	-70.8
						CHANNELS 3  Xrotation Yrotation Zrotation
						JOINT right_shoulder
						{
							OFFSET	93.9	-5.79999	48.7
							CHANNELS 3  Xrotation Yrotation Zrotation
							JOINT right_elbow
							{
								OFFSET	291.4	-30.8	15.2
								CHANNELS 3  Xrotation Yrotation Zrotation
								JOINT right_lowarm_twist
								{
									OFFSET	110.7	-3.89999	13.6
									CHANNELS 3  Xrotation Yrotation Zrotation
									JOINT right_hand
									{
										OFFSET	110.7	-3.89999	13.6
										CHANNELS 3  Xrotation Yrotation Zrotation
										JOINT right_ee
										{
											OFFSET	80.8	-5.10001	12.1
											CHANNELS 3  Xrotation Yrotation Zrotation
											End Site
											{
												OFFSET	1	0	0
											}
										}
									}
								}
							}
						}
					}
				}
			}
		}
	}
	JOINT left_hip
	{
		OFFSET	-82.8	-127.5	0.300001
		CHANNELS 3  Xrotation Yrotation Zrotation
		JOINT left_knee
		{
			OFFSET	-28.2	-396.7	2.2
			CHANNELS 3  Xrotation Yrotation Zrotation
			JOINT left_ankle
			{
				OFFSET	-11.7	-411.3	35.4
				CHANNELS 3  Xrotation Yrotation Zrotation
				JOINT left_toes
				{
					OFFSET	0	-60	-88.6
					CHANNELS 3  Xrotation Yrotation Zrotation
					JOINT left_foot_ee
					{
						OFFSET	-22.5	-16.5	-42.2
						CHANNELS 3  Xrotation Yrotation Zrotation
						End Site
						{
							OFFSET	1	0	0
						}
					}
				}
			}
		}
	}
	JOINT right_hip
	{
		OFFSET	82.8	-127.5	0.300001
		CHANNELS 3  Xrotation Yrotation Zrotation
		JOINT right_knee
		{
			OFFSET	28.2	-396.7	2.2
			CHANNELS 3  Xrotation Yrotation Zrotation
			JOINT right_ankle
			{
				OFFSET	11.7	-411.3	35.4
				CHANNELS 3  Xrotation Yrotation Zrotation
				JOINT right_toes
				{
					OFFSET	0	-60	-88.6
					CHANNELS 3  Xrotation Yrotation Zrotation
					JOINT right_foot_ee
					{
						OFFSET	22.5	-16.5	-42.2
						CHANNELS 3  Xrotation Yrotation Zrotation
						End Site
						{
							OFFSET	1	0	0
						}
					}
				}
			}
		}
	}
}
MOTION
Frames: 6
Frame Time: 0.02
3177.02 653.055 -1669.29 -12.884363445 55.658309497 7.3547794094 1.84998 1.0652 4.0549 1.85876 0.805245 4.11433 1.91722 0.0636462 4.19177 1.89344 0.724288 4.12932 -3.43733 19.4686 -2.26915 -2.78354 37.3065 0.461342 -0.0 0.0 -0.0 -1.43564 24.1542 0.855202 -41.5508 -11.4004 68.5538 0.631242 -17.3645 0.0963946 -21.6043 -1.23925 2.45245 0.0252847 12.648 5.36811 -0.0 0.0 -0.0 13.2814 25.7993 -26.3523 24.3588 36.1843 -69.4337 2.08636 45.9388 -0.884372 28.5857 -0.107898 3.61237 1.44169 19.2478 -1.40072 0.0 0.0 0.0 34.5517 29.0488 -13.8124 2.80557 -0.125659 -0.412112 10.106 -29.9353 -1.81691 -39.7701 0.0 0.0 -0.0 0.0 -0.0 -17.2621 16.8619 13.4394 2.2025 0.0969445 0.324042 40.3826 6.6472 4.99119 -13.4682 0.0 0.0 0.0 0.0 0.0 
3124.52629519 664.754 -1667.2931387 -10.7193181572 52.1897530093 5.5248958422 1.59981 0.999227 4.15077 1.60909 0.733319 4.2058 1.66418 -0.0424499 4.26893 1.63931 0.63167 4.22224 -2.86119 19.3138 -0.00681129 -2.25442 35.1949 2.63453 -0.0 0.0 -0.0 -1.79807 23.7246 0.296706 -36.6297 -12.6381 70.2625 0.537857 -14.9194 0.070426 -20.3663 -1.14385 2.32577 -0.43509 12.9227 2.57533 -0.0 0.0 -0.0 14.1306 25.9882 -28.3107 20.962 37.1101 -68.9774 1.91384 43.4682 -0.762988 26.6882 -0.156784 3.37492 2.02231 16.2241 -6.65152 0.0 0.0 0.0 31.3579 31.5503 -13.6895 -3.30353 0.121851 0.492275 20.767 -26.1181 -3.37275 -38.896 0.0 0.0 -0.0 0.0 -0.0 -19.3568 21.6465 15.7159 -5.40053 -0.184381 -0.808007 30.6297 2.75351 4.00207 -21.6413 0.0 0.0 0.0 0.0 0.0 
3109.22623705 669.789 -1662.96282807 -9.4607891835 50.2127350332 4.10811461299 1.20169 1.08422 4.18605 1.21107 0.8159 4.24641 1.27403 0.0021165 4.32394 1.2486 0.684344 4.26954 -2.27652 19.9778 1.78706 -1.62127 34.8974 4.42468 -0.0 0.0 -0.0 -1.39872 23.3339 0.781672 -33.6352 -13.947 69.9325 0.512533 -14.2462 0.0640498 -21.2046 -1.20814 2.41177 -0.662479 12.2566 0.861788 -0.0 0.0 -0.0 14.1485 26.2988 -28.3137 19.5261 38.5668 -67.659 1.79098 41.5756 -0.67994 25.9457 -0.173768 3.2816 2.1409 14.1158 -8.41346 0.0 0.0 0.0 30.6727 33.2567 -13.6404 -4.50572 0.159113 0.673009 20.3019 -25.5504 -3.28498 -38.8959 0.0 0.0 -0.0 0.0 -0.0 -19.5083 24.2275 16.8117 -8.51399 -0.2558 -1.2804 26.2953 0.00974433 3.50202 -23.215 0.0 0.0 0.0 0.0 0.0 
3084.35862813 679.404 -1657.32168087 -7.63160824241 49.5740452452 2.53546075725 0.794987 1.14967 4.20526 0.804393 0.879996 4.26973 0.873748 0.0303463 4.35921 0.847956 0.717775 4.29993 -3.14777 18.8943 0.444963 -2.62727 34.1392 3.14544 -0.0 0.0 -0.0 -0.270605 23.0695 2.29821 -30.8997 -13.8591 67.6057 0.51377 -14.2792 0.0643545 -20.1549 -1.12784 2.30394 -0.542956 13.3451 2.07424 -0.0 0.0 -0.0 14.5067 26.6114 -29.1151 17.3655 37.9379 -66.3473 1.59762 38.3557 -0.555688 24.813 -0.197342 3.13883 2.71741 12.9508 -12.8869 0.0 0.0 0.0 26.5614 34.237 -11.4537 -2.88456 0.107974 0.429473 20.5705 -26.1743 -3.34677 -40.1264 0.0 0.0 -0.0 0.0 -0.0 -18.472 27.3167 16.1806 -15.8571 -0.321965 -2.4044 18.0978 -8.39018 2.49264 -23.7325 0.0 0.0 0.0 0.0 0.0 
3056.38040471 682.836 -1648.46051011 -4.96722389543 49.0210801325 -0.376898120637 0.557988 1.13514 4.27125 0.567723 0.861314 4.33467 0.637434 -0.0189707 4.41921 0.610831 0.678523 4.36695 -4.2522 18.4981 -0.938645 -3.84748 34.665 1.99474 -0.0 0.0 -0.0 0.443148 23.5776 3.33169 -28.5569 -14.4496 66.2741 0.517108 -14.3681 0.0651802 -20.8024 -1.17714 2.37063 -1.27294 13.6316 -2.3716 -0.0 0.0 -0.0 13.6607 26.2123 -27.1845 15.6892 37.883 -67.1373 1.46674 35.9991 -0.476583 24.8507 -0.196604 3.14358 2.47582 9.99325 -12.5606 0.0 0.0 0.0 20.6649 36.0624 -7.30538 -1.70161 0.0663139 0.252708 23.4581 -21.5137 -3.57602 -40.1768 0.0 0.0 -0.0 0.0 -0.0 -17.293 32.6559 15.7211 -26.5812 -0.159759 -4.03958 11.7917 -14.1114 1.67568 -25.2572 0.0 0.0 0.0 0.0 0.0 
3017.44297878 689.476 -1657.24158103 -3.29646771878 48.8099509897 -1.86291662283 0.45396 1.05716 4.22753 0.463556 0.786266 4.28608 0.52703 -0.0914623 4.35651 0.50105 0.597062 4.31645 -6.61701 18.9627 -0.767182 -6.55969 35.7957 3.0553 -0.0 0.0 -0.0 0.112047 24.1765 2.94295 -24.6136 -16.5346 61.7675 0.743832 -20.2274 0.132682 -23.2293 -1.3686 2.61557 -1.40364 13.3898 -3.30065 -0.0 0.0 -0.0 13.7805 26.8191 -27.3872 12.8361 37.6901 -68.0207 1.01219 26.629 -0.239547 23.6154 -0.219191 2.98741 1.78477 3.31661 -10.6614 0.0 0.0 0.0 17.258 38.4152 -5.47146 -5.67866 0.191804 0.850045 25.7296 -19.0671 -3.78599 -39.9584 0.0 0.0 -0.0 0.0 -0.0 -13.0448 35.0966 13.1338 -36.6333 0.266589 -5.52119 6.38338 -18.4714 0.933311 -24.6091 0.0 0.0 0.0 0.0 0.0 
